<?xml version="1.0" encoding="utf-8"?>
<!-- Generator: Adobe Illustrator 24.3.0, SVG Export Plug-In . SVG Version: 6.00 Build 0)  -->
<svg version="1.1" id="Layer_1" xmlns="http://www.w3.org/2000/svg" xmlns:xlink="http://www.w3.org/1999/xlink" x="0px" y="0px"
	 viewBox="0 0 2627 656" style="enable-background:new 0 0 2627 656;" xml:space="preserve">
<style type="text/css">
	.st0{fill:#FFFFFF;}
	.st1{fill:none;stroke:#FFFFFF;stroke-width:28;stroke-miterlimit:10;}
	.st2{fill:#C5B357;}
	.st3{fill:none;stroke:#C5B357;stroke-width:28;stroke-miterlimit:10;}
	.st4{fill:none;stroke:#000000;stroke-width:28;stroke-miterlimit:10;}
	.st5{fill:#0C0C30;}
	.st6{fill:none;stroke:#0C0C30;stroke-width:28;stroke-miterlimit:10;}
	.st7{fill:none;stroke:#C5B357;stroke-width:42;stroke-miterlimit:10;}
</style>
<g>
	<g>
		<path class="st2" d="M942,371.1c0,37.7-30.7,68.4-68.4,68.4H727.3V224.9h135.2c31.9,0,58,26.1,58,58c0,11.7-3.4,22.4-9.2,31.3
			C929.7,326.4,942,347.2,942,371.1z M765.6,302.5h97.2c10.7,0,19.6-8.9,19.6-19.6s-8.9-19.6-19.6-19.6h-97.2V302.5z M873.6,400.9
			c16.6,0,30.1-13.5,30.1-30.1s-13.5-30.1-30.1-30.1H765.6v60.4h107.9V400.9z"/>
		<path class="st2" d="M1233,439.5H1190l-19.6-38.3l-46.9-92l-46.9,92l-19.6,38.3H1014l19.6-38.3l89.8-176.3l89.8,176.3L1233,439.5z
			"/>
		<path class="st2" d="M1481.7,401.5v38.3h-108.9c-10.7,0-20.9-2.5-30.1-7.1c-13.5-6.7-24.5-17.8-31-31.3
			c-4.6-9.2-7.1-19.3-7.1-30.1V225.2h38.3v149.9c1.8,13.5,12.6,24.2,26.1,26.1L1481.7,401.5z"/>
		<path class="st2" d="M1573.7,439.5V224.9h38.3v214.7H1573.7z"/>
		<path class="st2" d="M1918.7,224.9v214.7h-38.3V302.8l-37.7,28.8l-31.3,24.2l-31.3-24.2l-37.7-28.8v136.8H1704V224.9l38.3,29.4
			l69,53.1l69-53.1L1918.7,224.9z"/>
		<path class="st2" d="M2225.3,224.9v214.7H2187V302.8l-37.7,28.8l-31.3,24.2l-31.3-24.2l-37.7-28.8v136.8h-38.3V224.9l38.3,29.4
			l69,53.1l69-53.1L2225.3,224.9z"/>
		<path class="st2" d="M2524.6,332.2c0,59.2-48.1,107.3-107.3,107.3S2310,391.4,2310,332.2s48.1-107.3,107.3-107.3
			S2524.6,273,2524.6,332.2z M2486.3,332.2c0-38-31-69-69-69c-38,0-69,31-69,69s31,69,69,69C2455.3,401.2,2486.3,370.2,2486.3,332.2
			z"/>
	</g>
	<path class="st2" d="M343,87.3c-132.9,0-240.7,107.7-240.7,240.7S210.1,568.7,343,568.7S583.7,460.9,583.7,328S475.9,87.3,343,87.3
		z M343,530.5c-111.8,0-202.5-90.6-202.5-202.5S231.2,125.5,343,125.5S545.5,216.2,545.5,328S454.8,530.5,343,530.5z"/>
	<path class="st7" d="M342.5,184.4c13.5,13.5,61.4,91.1,204.8,91.1"/>
	<path class="st7" d="M344.7,184.4c-13.5,13.5-71.2,91.1-204.9,91.1"/>
	<g>
		<ellipse class="st2" cx="343.2" cy="170.4" rx="22.6" ry="28.4"/>
	</g>
	<g>
		<path class="st2" d="M457.6,272.3v234.4l-39.8,25.9V353.5l-39.2,30l-32.5,25.2l-32.5-25.2l-39.2-30v179.1l-39.8-25.9V272.3
			l39.8,30.7l71.7,55.2l71.7-55.2L457.6,272.3z"/>
	</g>
</g>
</svg>
